<svg width="26" height="21" viewBox="0 0 26 21" fill="none" xmlns="http://www.w3.org/2000/svg">
<path fill-rule="evenodd" clip-rule="evenodd" d="M1.00116 14.9401V14.679C1.04613 13.9064 1.33684 13.1579 1.8433 12.5106C2.68631 11.733 3.26339 10.7801 3.514 9.75192C3.514 8.95723 3.514 8.15119 3.5955 7.35651C4.01657 3.53067 8.4582 0.885498 12.8455 0.885498H12.9542C17.3415 0.885498 21.7831 3.53067 22.2178 7.35651C22.2992 8.15119 22.2178 8.95723 22.2857 9.75192C22.5397 10.7825 23.1162 11.7384 23.9564 12.522C24.4666 13.1636 24.7578 13.9093 24.7985 14.679V14.9287C24.8288 15.9666 24.4091 16.9787 23.6168 17.7782C22.5698 18.7132 21.149 19.2948 19.6234 19.413C15.1498 19.8217 10.6363 19.8217 6.16268 19.413C4.63881 19.2897 3.22007 18.7089 2.16929 17.7782C1.3892 16.9781 0.975137 15.972 1.00116 14.9401Z" stroke="#200E32" stroke-width="1.5" stroke-linecap="round" stroke-linejoin="round"/>
</svg>
